# xmcd
#
# Track frame offsets: 
#        150
#        10815
#        21765
#        33990
#        45240
#        68265
#        78990
#        91435
#        104042
#        115512
#        126467
#        138912
#        147842
#        173620
#        185095
#
# Disc length: 2603 seconds
#
# Revision: 6
# Processed by: cddbd v1.5.2PL0 Copyright (c) Steve Scherf et al.
# Submitted via: ExactAudioCopy v1.3
#
DISCID=bc0a290f
DTITLE=Various Artist - Classic Rhythm And Blues Collection Vol. 1 1955-1959 
DTITLE=Disc 2
DYEAR=2000
DGENRE=R&B
TTITLE0=Chuck Berry - Maybellene
TTITLE1=Fats Domino - Ain't That A Shame
TTITLE2=Little Willie John - Fever
TTITLE3=Johnny Ace - Pledging My Love
TTITLE4=Ray Charles - What'd I Say
TTITLE5=Thurston Harris - Little Bitty Pretty One
TTITLE6=Ivory Joe Hunter - Since I Met You Baby
TTITLE7=Silhouettes - Get A Job
TTITLE8=Clyde McPhatter - A Lover's Question
TTITLE9=Little Richard - Tutti-Frutti
TTITLE10=James Brown - Please Please Please
TTITLE11=Fats Domino - I'm In Love Again
TTITLE12=Bill Doggett - Honky Tonk (Parts 1 And 2)
TTITLE13=Chuck Willis - C.C. Rider
TTITLE14=Fats Domino - Blue Monday
EXTD=
EXTT0=
EXTT1=
EXTT2=
EXTT3=
EXTT4=
EXTT5=
EXTT6=
EXTT7=
EXTT8=
EXTT9=
EXTT10=
EXTT11=
EXTT12=
EXTT13=
EXTT14=
PLAYORDER=
